<svg width="25" height="26" viewBox="0 0 25 26" fill="none" xmlns="http://www.w3.org/2000/svg">
<path d="M24.1948 13.997C24.1192 15.1376 23.8569 16.0497 23.3614 17.2471C22.7714 18.6729 21.9064 19.9685 20.8157 21.06C19.725 22.1515 18.43 23.0174 17.0046 23.6084C15.5793 24.1994 14.0514 24.5039 12.5084 24.5044C10.9654 24.505 9.43734 24.2016 8.01156 23.6116C6.58577 23.0216 5.29015 22.1566 4.19868 21.0659C3.1072 19.9752 2.24124 18.6802 1.65025 17.2548C1.1495 16.0471 0.862109 15.1322 0.77691 13.9997L8.57736 13.9969C8.61361 14.1016 8.65573 14.2147 8.70365 14.3303C8.91059 14.8294 9.21381 15.2828 9.596 15.6647C9.97818 16.0466 10.4319 16.3495 10.9311 16.5561C11.4303 16.7627 11.9654 16.8689 12.5057 16.8688C13.046 16.8686 13.581 16.762 14.0801 16.555C14.5792 16.3481 15.0326 16.0448 15.4145 15.6627C15.7965 15.2805 16.0994 14.8268 16.3059 14.3276C16.3529 14.214 16.3921 14.1032 16.4247 13.9998L24.1948 13.997Z" stroke="#F9F9F9" stroke-width="1.5"/>
<path d="M0.773381 11.2532C0.849371 10.1127 1.11199 9.20074 1.60791 8.00347C2.1984 6.57789 3.0639 5.28258 4.15499 4.1915C5.24608 3.10041 6.54139 2.23491 7.96697 1.64442C9.39254 1.05392 10.9205 0.75 12.4635 0.75C14.0065 0.75 15.5345 1.05392 16.96 1.64442C18.3856 2.23491 19.6809 3.10041 20.772 4.19149C21.8631 5.28258 22.7286 6.57789 23.3191 8.00347C23.8194 9.21134 24.1065 10.1264 24.1913 11.2589H16.3908C16.3546 11.1542 16.3125 11.0411 16.2646 10.9255C16.0579 10.4263 15.7548 9.97278 15.3728 9.59073C14.9907 9.20868 14.5372 8.90562 14.038 8.69885C13.5388 8.49209 13.0038 8.38567 12.4635 8.38567C11.9232 8.38567 11.3882 8.49209 10.889 8.69885C10.3898 8.90562 9.93628 9.20868 9.55422 9.59073C9.17217 9.97278 8.86911 10.4263 8.66235 10.9255C8.61532 11.0391 8.57607 11.1499 8.54346 11.2532L0.773381 11.2532Z" stroke="#F9F9F9" stroke-width="1.5"/>
</svg>
